# xmcd
# 
# Track frame offsets:
#     150
#     9715
#     22362
#     34916
#     47347
#     59942
#     75841
#     88853
#     103331
#     134864
#     158741
#     178334
#     194634
#     218929
#     237777
#     262911
#     280860
#     302142
#     324809
#     339348
# 
# Disc length: 4743
# 
# Revision: 12
# Processed by: cddbd v1.5.2PL0 Copyright (c) Steve Scherf et al.
# Submitted via: fre:ac v1.1beta1pre5
# 
DISCID=28128514
DTITLE=James Brown - The Godfather: The Very Best Of James Brown
DYEAR=0
DGENRE=Funk and Soul
TTITLE0=Papa's Got A Brand New Bag
TTITLE1=I Got You (I Feel Good)
TTITLE2=It's A Man's Man's World
TTITLE3=Please, Please, Please
TTITLE4=Think
TTITLE5=Night Train
TTITLE6=Cold Sweat
TTITLE7=Give It Up Or Turnit A Loose
TTITLE8=Funky Drummer Pts. 1 and 2
TTITLE9=Get Up (I Feeld Like Being) A Sex Machine
TTITLE10=Soul Power
TTITLE11=Get On The Good Foot
TTITLE12=Doing It To Death
TTITLE13=Get Up Offa That Thing
TTITLE14=I'm Real
TTITLE15=It's Too Funks In Here
TTITLE16=Living In America
TTITLE17=Super Bad
TTITLE18=The Boss
TTITLE19=The Payback Mix
EXTD=The Godfather
EXTT0=
EXTT1=
EXTT2=
EXTT3=
EXTT4=
EXTT5=
EXTT6=
EXTT7=
EXTT8=
EXTT9=
EXTT10=
EXTT11=
EXTT12=
EXTT13=
EXTT14=
EXTT15=
EXTT16=
EXTT17=
EXTT18=
EXTT19=
PLAYORDER=
